<?xml version="1.0" encoding="UTF-8"?>
<svg xmlns="http://www.w3.org/2000/svg" xmlns:xlink="http://www.w3.org/1999/xlink" width="0" height="0">
<symbol id="map-pin" width="16" height="16" viewBox="0 0 16 16" fill="none"><g clip-path="url(#clip0_31_2509)"><path d="M14 6.66651C14 11.3332 8 15.3332 8 15.3332C8 15.3332 2 11.3332 2 6.66651C2 5.07521 2.63214 3.54908 3.75736 2.42386C4.88258 1.29864 6.4087 0.666504 8 0.666504C9.5913 0.666504 11.1174 1.29864 12.2426 2.42386C13.3679 3.54908 14 5.07521 14 6.66651Z" stroke-width="1.5" stroke-linecap="round" stroke-linejoin="round"/><path d="M8 8.6665C9.10457 8.6665 10 7.77107 10 6.6665C10 5.56193 9.10457 4.6665 8 4.6665C6.89543 4.6665 6 5.56193 6 6.6665C6 7.77107 6.89543 8.6665 8 8.6665Z" stroke-width="1.5" stroke-linecap="round" stroke-linejoin="round"/></g><defs><clipPath><rect width="16" height="16"/></clipPath></defs></symbol>
<symbol id="star-coral" width="16" height="15" viewBox="0 0 16 15" fill="none"><path d="M6.20021 4.69703L8 1.28579L9.79979 4.69703C9.95896 4.9987 10.2491 5.20947 10.5851 5.26762L14.3856 5.92519L11.6975 8.69103C11.4598 8.93563 11.3489 9.27666 11.3975 9.61427L11.9465 13.4319L8.48537 11.7301C8.17929 11.5795 7.82071 11.5795 7.51463 11.7301L4.05348 13.4319L4.6025 9.61427C4.65105 9.27666 4.54024 8.93563 4.30252 8.69103L1.6144 5.92519L5.41486 5.26762C5.75095 5.20947 6.04104 4.9987 6.20021 4.69703Z" stroke-width="1.2"/></symbol>
<symbol id="close" width="32" height="32" viewBox="0 0 32 32" fill="none"><path d="M24 8L8 24" stroke-width="2.5" stroke-linecap="round" stroke-linejoin="round"/><path d="M8 8L24 24" stroke-width="2.5" stroke-linecap="round" stroke-linejoin="round"/></symbol>
<symbol id="check" width="20" height="16" viewBox="0 0 20 16" fill="none"><path fill-rule="evenodd" clip-rule="evenodd" d="M2.5 5.5L0 8L7.5 15.5L20 3L17.5 0.5L7.5 10.5L2.5 5.5Z"/></symbol>
<symbol id="clock" width="20" height="20" viewBox="0 0 20 20" fill="none"><g clip-path="url(#clip0_31_2474)"><path d="M10.0003 18.3334C14.6027 18.3334 18.3337 14.6025 18.3337 10.0001C18.3337 5.39771 14.6027 1.66675 10.0003 1.66675C5.39795 1.66675 1.66699 5.39771 1.66699 10.0001C1.66699 14.6025 5.39795 18.3334 10.0003 18.3334Z" stroke-width="1.5" stroke-linecap="round" stroke-linejoin="round"/><path d="M10 5V10L13.3333 11.6667" stroke-width="1.5" stroke-linecap="round" stroke-linejoin="round"/></g><defs><clipPath><rect width="20" height="20"/></clipPath></defs></symbol>
<symbol id="arrow-down" width="12" height="8" viewBox="0 0 12 8" fill="none"><path d="M1 1.5L6 6.5L11 1.5" stroke-width="2" stroke-linecap="round" stroke-linejoin="round"/></symbol>
<symbol id="arrow-right" width="20" height="16" viewBox="0 0 20 16" fill="none"><path d="M19.7176 8.53774C20.1012 8.14046 20.0902 7.50739 19.6929 7.12374L13.2188 0.871819C12.8216 0.48817 12.1885 0.49922 11.8048 0.8965C11.4212 1.29378 11.4322 1.92685 11.8295 2.3105L17.5842 7.86776L12.027 13.6225C11.6433 14.0198 11.6544 14.6528 12.0517 15.0365C12.4489 15.4201 13.082 15.4091 13.4656 15.0118L19.7176 8.53774ZM1.01843 9.15707L19.0157 8.84293L18.9808 6.84324L0.983524 7.15738L1.01843 9.15707Z"/></symbol>
<symbol id="arrow-up" width="15" height="17" viewBox="0 0 15 17" fill="none"><path d="M13.4069 1.67313C13.3301 1.12622 12.8244 0.745174 12.2775 0.822036L3.36507 2.0746C2.81816 2.15146 2.43711 2.65713 2.51397 3.20404C2.59084 3.75095 3.09651 4.13199 3.64342 4.05513L11.5656 2.94175L12.6789 10.8639C12.7558 11.4108 13.2615 11.7918 13.8084 11.715C14.3553 11.6381 14.7363 11.1325 14.6595 10.5855L13.4069 1.67313ZM2.38262 16.7896L13.2153 2.41412L11.618 1.21049L0.785349 15.5859L2.38262 16.7896Z"/></symbol>
<symbol id="user" width="16" height="16" viewBox="0 0 16 16" fill="none"><path d="M8 0C9.06087 0 10.0783 0.421427 10.8284 1.17157C11.5786 1.92172 12 2.93913 12 4C12 5.06087 11.5786 6.07828 10.8284 6.82843C10.0783 7.57857 9.06087 8 8 8C6.93913 8 5.92172 7.57857 5.17157 6.82843C4.42143 6.07828 4 5.06087 4 4C4 2.93913 4.42143 1.92172 5.17157 1.17157C5.92172 0.421427 6.93913 0 8 0ZM8 10C12.42 10 16 11.79 16 14V16H0V14C0 11.79 3.58 10 8 10Z"/></symbol>
<symbol id="heart-hover" width="26" height="26" viewBox="0 0 26 26" fill="none"><path d="M22.5766 4.99419C22.0233 4.44061 21.3663 4.00147 20.6433 3.70187C19.9202 3.40226 19.1452 3.24805 18.3625 3.24805C17.5798 3.24805 16.8047 3.40226 16.0817 3.70187C15.3586 4.00147 14.7016 4.44061 14.1483 4.99419L13 6.14252L11.8516 4.99419C10.734 3.87652 9.21809 3.24863 7.63747 3.24863C6.05685 3.24863 4.54097 3.87652 3.4233 4.99419C2.30563 6.11186 1.67773 7.62774 1.67773 9.20836C1.67773 10.789 2.30563 12.3049 3.4233 13.4225L4.57163 14.5709L13 22.9992L21.4283 14.5709L22.5766 13.4225C23.1302 12.8692 23.5693 12.2122 23.869 11.4892C24.1686 10.7661 24.3228 9.99105 24.3228 9.20836C24.3228 8.42566 24.1686 7.65064 23.869 6.92756C23.5693 6.20448 23.1302 5.54751 22.5766 4.99419Z" stroke-width="2" stroke-linecap="round" stroke-linejoin="round"/></symbol>
<symbol id="heart-normal" width="26" height="26" viewBox="0 0 26 26" fill="none"><path d="M22.5766 4.99419C22.0233 4.44061 21.3663 4.00147 20.6433 3.70187C19.9202 3.40226 19.1452 3.24805 18.3625 3.24805C17.5798 3.24805 16.8047 3.40226 16.0817 3.70187C15.3586 4.00147 14.7016 4.44061 14.1483 4.99419L13 6.14252L11.8516 4.99419C10.734 3.87652 9.21809 3.24863 7.63747 3.24863C6.05685 3.24863 4.54097 3.87652 3.4233 4.99419C2.30563 6.11186 1.67773 7.62774 1.67773 9.20836C1.67773 10.789 2.30563 12.3049 3.4233 13.4225L4.57163 14.5709L13 22.9992L21.4283 14.5709L22.5766 13.4225C23.1302 12.8692 23.5693 12.2122 23.869 11.4892C24.1686 10.7661 24.3228 9.99105 24.3228 9.20836C24.3228 8.42566 24.1686 7.65064 23.869 6.92756C23.5693 6.20448 23.1302 5.54751 22.5766 4.99419Z" stroke-width="2" stroke-linecap="round" stroke-linejoin="round"/></symbol>
<symbol id="eye" width="20" height="20" viewBox="0 0 20 20" fill="none"><g clip-path="url(#clip0_31_2517)"><path d="M0.833008 10.0002C0.833008 10.0002 4.16634 3.3335 9.99967 3.3335C15.833 3.3335 19.1663 10.0002 19.1663 10.0002C19.1663 10.0002 15.833 16.6668 9.99967 16.6668C4.16634 16.6668 0.833008 10.0002 0.833008 10.0002Z" stroke-width="2" stroke-linecap="round" stroke-linejoin="round"/><path d="M10 12.5C11.3807 12.5 12.5 11.3807 12.5 10C12.5 8.61929 11.3807 7.5 10 7.5C8.61929 7.5 7.5 8.61929 7.5 10C7.5 11.3807 8.61929 12.5 10 12.5Z" stroke-width="2" stroke-linecap="round" stroke-linejoin="round"/></g><defs><clipPath><rect width="20" height="20"/></clipPath></defs></symbol>
<symbol id="eye-off" width="20" height="20" viewBox="0 0 20 20" fill="none"><g clip-path="url(#clip0_31_2514)"><path d="M14.9497 14.9502C13.5252 16.036 11.7906 16.6376 9.99968 16.6668C4.16634 16.6668 0.833008 10.0002 0.833008 10.0002C1.86958 8.06843 3.30729 6.38069 5.04967 5.05018M8.24968 3.53352C8.82329 3.39925 9.41056 3.33213 9.99968 3.33352C15.833 3.33352 19.1663 10.0002 19.1663 10.0002C18.6605 10.9465 18.0572 11.8375 17.3663 12.6585M11.7663 11.7668C11.5375 12.0125 11.2615 12.2095 10.9548 12.3461C10.6481 12.4828 10.3171 12.5562 9.98142 12.5622C9.64574 12.5681 9.31231 12.5063 9.00102 12.3806C8.68972 12.2549 8.40694 12.0677 8.16955 11.8303C7.93215 11.5929 7.745 11.3101 7.61927 10.9988C7.49353 10.6875 7.43178 10.3541 7.4377 10.0184C7.44363 9.68276 7.5171 9.35172 7.65374 9.04506C7.79038 8.73839 7.98739 8.46239 8.23301 8.23352" stroke-width="2" stroke-linecap="round" stroke-linejoin="round"/><path d="M0.833008 0.833496L19.1663 19.1668" stroke-width="2" stroke-linecap="round" stroke-linejoin="round"/></g><defs><clipPath><rect width="20" height="20"/></clipPath></defs></symbol></svg>