<svg aria-hidden="true" style="position: absolute; width: 0; height: 0; overflow: hidden;" version="1.1" xmlns="http://www.w3.org/2000/svg" xmlns:xlink="http://www.w3.org/1999/xlink">
<defs>
<symbol id="icon-menu" viewBox="0 0 24 24">
<path d="M3 13h18c0.552 0 1-0.448 1-1s-0.448-1-1-1h-18c-0.552 0-1 0.448-1 1s0.448 1 1 1zM3 7h18c0.552 0 1-0.448 1-1s-0.448-1-1-1h-18c-0.552 0-1 0.448-1 1s0.448 1 1 1zM3 19h18c0.552 0 1-0.448 1-1s-0.448-1-1-1h-18c-0.552 0-1 0.448-1 1s0.448 1 1 1z"></path>
</symbol>
<symbol id="icon-eye-off" viewBox="0 0 32 32">
<path stroke-linejoin="round" stroke-linecap="round" stroke-miterlimit="4" stroke-width="3.2" d="M23.92 23.92c-2.175 1.672-4.923 2.697-7.908 2.747l-0.012 0c-9.334 0-14.667-10.667-14.667-10.667 1.713-3.152 3.978-5.791 6.689-7.877l0.058-0.043M13.2 5.654c0.833-0.203 1.788-0.32 2.771-0.32 0.010 0 0.020 0 0.030 0h-0.002c9.333 0 14.666 10.666 14.666 10.666-0.871 1.616-1.826 3.009-2.91 4.291l0.030-0.036M18.826 18.827c-0.732 0.785-1.771 1.274-2.925 1.274-1.105 0-2.105-0.448-2.828-1.173l-0-0c-0.724-0.724-1.171-1.724-1.171-2.828 0-1.154 0.488-2.193 1.27-2.923l0.002-0.002M1.333 1.333l29.333 29.334"></path>
</symbol>
<symbol id="icon-eye" viewBox="0 0 32 32">
<path stroke-linejoin="round" stroke-linecap="round" stroke-miterlimit="4" stroke-width="3.2" d="M1.333 16s5.333-10.667 14.667-10.667c9.333 0 14.666 10.667 14.666 10.667s-5.333 10.667-14.666 10.667c-9.334 0-14.667-10.667-14.667-10.667z"></path>
<path stroke-linejoin="round" stroke-linecap="round" stroke-miterlimit="4" stroke-width="3.2" d="M16 20c2.209 0 4-1.791 4-4s-1.791-4-4-4v0c-2.209 0-4 1.791-4 4s1.791 4 4 4v0z"></path>
</symbol>
<symbol id="icon-heart" viewBox="0 0 26 26" fill="none" xmlns="http://www.w3.org/2000/svg">
<path d="M22.5766 2.99419C22.0233 2.44061 21.3663 2.00147 20.6433 1.70187C19.9202 1.40226 19.1452 1.24805 18.3625 1.24805C17.5798 1.24805 16.8047 1.40226 16.0817 1.70187C15.3586 2.00147 14.7016 2.44061 14.1483 2.99419L13 4.14252L11.8516 2.99419C10.734 1.87652 9.21809 1.24863 7.63747 1.24863C6.05685 1.24863 4.54097 1.87652 3.4233 2.99419C2.30563 4.11186 1.67773 5.62774 1.67773 7.20836C1.67773 8.78898 2.30563 10.3049 3.4233 11.4225L4.57163 12.5709L13 20.9992L21.4283 12.5709L22.5766 11.4225C23.1302 10.8692 23.5693 10.2122 23.869 9.48916C24.1686 8.76608 24.3228 7.99105 24.3228 7.20836C24.3228 6.42566 24.1686 5.65064 23.869 4.92756C23.5693 4.20448 23.1302 3.54751 22.5766 2.99419Z" stroke="#11101C" stroke-width="2" stroke-linecap="round" stroke-linejoin="round"/>
</symbol>
<symbol id="icon-heart-blue" viewBox="0 0 26 26" fill="none" xmlns="http://www.w3.org/2000/svg">
<path d="M22.5766 2.99419C22.0233 2.44061 21.3663 2.00147 20.6433 1.70187C19.9202 1.40226 19.1452 1.24805 18.3625 1.24805C17.5798 1.24805 16.8047 1.40226 16.0817 1.70187C15.3586 2.00147 14.7016 2.44061 14.1483 2.99419L13 4.14252L11.8516 2.99419C10.734 1.87652 9.21809 1.24863 7.63747 1.24863C6.05685 1.24863 4.54097 1.87652 3.4233 2.99419C2.30563 4.11186 1.67773 5.62774 1.67773 7.20836C1.67773 8.78898 2.30563 10.3049 3.4233 11.4225L4.57163 12.5709L13 20.9992L21.4283 12.5709L22.5766 11.4225C23.1302 10.8692 23.5693 10.2122 23.869 9.48916C24.1686 8.76608 24.3228 7.99105 24.3228 7.20836C24.3228 6.42566 24.1686 5.65064 23.869 4.92756C23.5693 4.20448 23.1302 3.54751 22.5766 2.99419Z" fill="#0957C3" stroke="#0957C3" stroke-width="2" stroke-linecap="round" stroke-linejoin="round"/>
</symbol>
<symbol id="icon-user" viewBox="0 0 32 32">
<path d="M16 0c4.418 0 8 3.582 8 8s-3.582 8-8 8v0c-4.418 0-8-3.582-8-8s3.582-8 8-8v0zM16 20c8.84 0 16 3.58 16 8v4h-32v-4c0-4.42 7.16-8 16-8z"></path>
</symbol>
<symbol id="icon-arrow-up" viewBox="0 0 32 32">
<path d="M27.119 3.149c-0.133-0.921-0.917-1.62-1.864-1.62-0.093 0-0.184 0.007-0.273 0.020l0.010-0.001-16.776 2.359c-0.942 0.112-1.666 0.907-1.666 1.87 0 1.040 0.843 1.882 1.882 1.882 0.108 0 0.214-0.009 0.318-0.027l14.903-2.093 2.095 14.912c0.15 0.902 0.925 1.581 1.858 1.581 1.040 0 1.882-0.843 1.882-1.882 0-0.079-0.005-0.156-0.014-0.233l0.001 0.009-2.357-16.776zM6.368 31.605l20.39-27.061-3.006-2.266-20.392 27.061 3.008 2.266z"></path>
</symbol>
<symbol id="icon-arrow-right" viewBox="0 0 32 32">
<path d="M31.549 16.861c0.278-0.287 0.449-0.679 0.449-1.111 0-0.452-0.187-0.86-0.488-1.151l-0-0-10.358-10.003c-0.288-0.278-0.68-0.449-1.112-0.449-0.884 0-1.601 0.717-1.601 1.601 0 0.452 0.187 0.86 0.488 1.151l0 0 9.208 8.891-8.891 9.208c-0.278 0.287-0.449 0.679-0.449 1.111 0 0.884 0.716 1.6 1.6 1.6 0.452 0 0.86-0.187 1.151-0.488l0-0 10.003-10.358zM1.629 17.853l28.797-0.504-0.056-3.2-28.795 0.502 0.054 3.2z"></path>
</symbol>
<symbol id="icon-arrow-down" viewBox="0 0 20 20">
<path d="M5 7.5L10 12.5L15 7.5" stroke="#FBFBFB" stroke-width="2" stroke-linecap="round" stroke-linejoin="round" />
</symbol>
<symbol id="icon-clock" viewBox="0 0 32 32">
<path stroke-linejoin="round" stroke-linecap="round" stroke-miterlimit="4" stroke-width="2.4" d="M16 29.333c7.364 0 13.333-5.969 13.333-13.333s-5.969-13.333-13.333-13.333v0c-7.364 0-13.333 5.969-13.333 13.333s5.969 13.333 13.333 13.333v0z"></path>
<path stroke-linejoin="round" stroke-linecap="round" stroke-miterlimit="4" stroke-width="2.4" d="M16 8v8l5.333 2.667"></path>
</symbol>
<symbol id="icon-check" viewBox="0 0 20 16">
<path fill-rule="evenodd" clip-rule="evenodd" d="M2.5 5.5L0 8L7.5 15.5L20 3L17.5 0.5L7.5 10.5L2.5 5.5Z" fill="#FBFBFB" />
</symbol>
<symbol id="icon-close" viewBox="0 0 32 32">
<path stroke-linejoin="round" stroke-linecap="round" stroke-miterlimit="4" stroke-width="2.5" d="M24 8l-16 16M8 8l16 16"></path>
</symbol>
<symbol id="icon-star" viewBox="0 0 32 32">
<path fill="#ffc531" stroke="#ffc531" stroke-width="2.4" d="M12.4 9.394 16 2.572l3.6 6.822a2.2 2.2 0 0 0 1.571 1.141l7.601 1.315-5.376 5.532a2.2 2.2 0 0 0-.6 1.846l1.098 7.635-6.922-3.404a2.199 2.199 0 0 0-1.941 0l-6.922 3.404 1.098-7.635a2.2 2.2 0 0 0-.6-1.846L3.231 11.85l7.601-1.315a2.202 2.202 0 0 0 1.571-1.141z"/>
</symbol>
<symbol id="icon-map-pin" viewBox="0 0 32 32">
<path stroke-linejoin="round" stroke-linecap="round" stroke-miterlimit="4" stroke-width="3" d="M28 13.334c0 9.332-12 17.332-12 17.332s-12-8-12-17.332c0-6.627 5.373-12 12-12s12 5.373 12 12v0z"></path>
<path stroke-linejoin="round" stroke-linecap="round" stroke-miterlimit="4" stroke-width="3" d="M16 17.332c2.209 0 4-1.791 4-4s-1.791-4-4-4v0c-2.209 0-4 1.791-4 4s1.791 4 4 4v0z"></path>
</symbol>
</defs>
</svg>
