<svg aria-hidden="true" style="position: absolute; width: 0; height: 0; overflow: hidden;" version="1.1" xmlns="http://www.w3.org/2000/svg" xmlns:xlink="http://www.w3.org/1999/xlink">
<defs>
<symbol id="icon-menu" viewBox="0 0 47 32">
<path stroke-linejoin="round" stroke-linecap="round" stroke-miterlimit="4" stroke-width="4.3636" d="M1.961 29.153h42.964M1.961 15.615h42.964M1.961 2.077h42.964"></path>
</symbol>
<symbol id="icon-eye-off" viewBox="0 0 32 32">
<path stroke-linejoin="round" stroke-linecap="round" stroke-miterlimit="4" stroke-width="3.2" d="M23.92 23.92c-2.175 1.672-4.923 2.697-7.908 2.747l-0.012 0c-9.334 0-14.667-10.667-14.667-10.667 1.713-3.152 3.978-5.791 6.689-7.877l0.058-0.043M13.2 5.654c0.833-0.203 1.788-0.32 2.771-0.32 0.010 0 0.020 0 0.030 0h-0.002c9.333 0 14.666 10.666 14.666 10.666-0.871 1.616-1.826 3.009-2.91 4.291l0.030-0.036M18.826 18.827c-0.732 0.785-1.771 1.274-2.925 1.274-1.105 0-2.105-0.448-2.828-1.173l-0-0c-0.724-0.724-1.171-1.724-1.171-2.828 0-1.154 0.488-2.193 1.27-2.923l0.002-0.002M1.333 1.333l29.333 29.334"></path>
</symbol>
<symbol id="icon-eye" viewBox="0 0 32 32">
<path stroke-linejoin="round" stroke-linecap="round" stroke-miterlimit="4" stroke-width="3.2" d="M1.333 16s5.333-10.667 14.667-10.667c9.333 0 14.666 10.667 14.666 10.667s-5.333 10.667-14.666 10.667c-9.334 0-14.667-10.667-14.667-10.667z"></path>
<path stroke-linejoin="round" stroke-linecap="round" stroke-miterlimit="4" stroke-width="3.2" d="M16 20c2.209 0 4-1.791 4-4s-1.791-4-4-4v0c-2.209 0-4 1.791-4 4s1.791 4 4 4v0z"></path>
</symbol>
<symbol id="icon-heart-normal" viewBox="0 0 32 32">
<path stroke-linejoin="round" stroke-linecap="round" stroke-miterlimit="4" stroke-width="2.4615" d="M27.787 6.146c-1.327-1.328-3.161-2.149-5.187-2.149s-3.86 0.821-5.187 2.149l-1.413 1.414-1.413-1.414c-1.331-1.35-3.18-2.186-5.224-2.186-4.051 0-7.335 3.284-7.335 7.335 0 2.044 0.836 3.892 2.184 5.223l0.001 0.001 11.787 11.787 11.787-11.787c1.327-1.327 2.148-3.161 2.148-5.186s-0.821-3.859-2.148-5.186v0z"></path>
</symbol>
<symbol id="icon-user" viewBox="0 0 32 32">
<path d="M16 0c4.418 0 8 3.582 8 8s-3.582 8-8 8v0c-4.418 0-8-3.582-8-8s3.582-8 8-8v0zM16 20c8.84 0 16 3.58 16 8v4h-32v-4c0-4.42 7.16-8 16-8z"></path>
</symbol>
<symbol id="icon-arrow-up" viewBox="0 0 32 32">
<path d="M27.119 3.149c-0.133-0.921-0.917-1.62-1.864-1.62-0.093 0-0.184 0.007-0.273 0.020l0.010-0.001-16.776 2.359c-0.942 0.112-1.666 0.907-1.666 1.87 0 1.040 0.843 1.882 1.882 1.882 0.108 0 0.214-0.009 0.318-0.027l14.903-2.093 2.095 14.912c0.15 0.902 0.925 1.581 1.858 1.581 1.040 0 1.882-0.843 1.882-1.882 0-0.079-0.005-0.156-0.014-0.233l0.001 0.009-2.357-16.776zM6.368 31.605l20.39-27.061-3.006-2.266-20.392 27.061 3.008 2.266z"></path>
</symbol>
<symbol id="icon-arrow-right" viewBox="0 0 32 32">
<path d="M31.549 16.861c0.278-0.287 0.449-0.679 0.449-1.111 0-0.452-0.187-0.86-0.488-1.151l-0-0-10.358-10.003c-0.288-0.278-0.68-0.449-1.112-0.449-0.884 0-1.601 0.717-1.601 1.601 0 0.452 0.187 0.86 0.488 1.151l0 0 9.208 8.891-8.891 9.208c-0.278 0.287-0.449 0.679-0.449 1.111 0 0.884 0.716 1.6 1.6 1.6 0.452 0 0.86-0.187 1.151-0.488l0-0 10.003-10.358zM1.629 17.853l28.797-0.504-0.056-3.2-28.795 0.502 0.054 3.2z"></path>
</symbol>
<symbol id="icon-arrow-down" viewBox="0 0 32 32">
<path stroke-linejoin="round" stroke-linecap="round" stroke-miterlimit="4" stroke-width="5.3333" d="M2.667 9.333l13.333 13.333 13.333-13.333"></path>
</symbol>
<symbol id="icon-clock" viewBox="0 0 32 32">
<path stroke-linejoin="round" stroke-linecap="round" stroke-miterlimit="4" stroke-width="2.4" d="M16 29.333c7.364 0 13.333-5.969 13.333-13.333s-5.969-13.333-13.333-13.333v0c-7.364 0-13.333 5.969-13.333 13.333s5.969 13.333 13.333 13.333v0z"></path>
<path stroke-linejoin="round" stroke-linecap="round" stroke-miterlimit="4" stroke-width="2.4" d="M16 8v8l5.333 2.667"></path>
</symbol>
<symbol id="icon-check" viewBox="0 0 32 32">
<path d="M4 12l-4 4 12 12 20-20-4-4-16 16-8-8z"></path>
</symbol>
<symbol id="icon-close" viewBox="0 0 32 32">
<path stroke-linejoin="round" stroke-linecap="round" stroke-miterlimit="4" stroke-width="2.5" d="M24 8l-16 16M8 8l16 16"></path>
</symbol>
<symbol id="icon-star-coral" viewBox="0 0 32 32">
<path stroke-linejoin="miter" stroke-linecap="butt" stroke-miterlimit="4" stroke-width="2.4" d="M12.4 10.394l3.6-6.822 3.6 6.822c0.318 0.604 0.9 1.024 1.57 1.14l7.6 1.316-5.376 5.532c-0.385 0.396-0.622 0.937-0.622 1.533 0 0.11 0.008 0.219 0.024 0.325l-0.001-0.012 1.1 7.636-6.924-3.404c-0.283-0.142-0.617-0.225-0.97-0.225s-0.687 0.083-0.983 0.231l0.013-0.006-6.924 3.404 1.1-7.636c0.014-0.094 0.022-0.202 0.022-0.313 0-0.596-0.237-1.138-0.623-1.534l0.001 0-5.378-5.532 7.6-1.314c0.687-0.122 1.254-0.547 1.566-1.13l0.006-0.012z"></path>
</symbol>
<symbol id="icon-map-pin" viewBox="0 0 32 32">
<path stroke-linejoin="round" stroke-linecap="round" stroke-miterlimit="4" stroke-width="3" d="M28 13.334c0 9.332-12 17.332-12 17.332s-12-8-12-17.332c0-6.627 5.373-12 12-12s12 5.373 12 12v0z"></path>
<path stroke-linejoin="round" stroke-linecap="round" stroke-miterlimit="4" stroke-width="3" d="M16 17.332c2.209 0 4-1.791 4-4s-1.791-4-4-4v0c-2.209 0-4 1.791-4 4s1.791 4 4 4v0z"></path>
</symbol>
</defs>
</svg>
